<svg width="18" height="14" viewBox="0 0 18 14" fill="none" xmlns="http://www.w3.org/2000/svg">
<path d="M16.3116 0C17.2257 0 17.9991 0.773438 17.9991 1.6875V11.8125C17.9991 12.7617 17.2257 13.5 16.3116 13.5H1.68661C0.737394 13.5 -0.000886917 12.7617 -0.000886917 11.8125V1.6875C-0.000886917 0.773438 0.737394 0 1.68661 0H16.3116ZM16.3116 1.6875H1.68661V3.12891C2.46005 3.79688 3.72568 4.78125 6.39755 6.89062C6.99521 7.34766 8.15536 8.47266 8.99911 8.4375C9.80771 8.47266 10.9679 7.34766 11.5655 6.89062C14.2374 4.78125 15.503 3.79688 16.3116 3.12891V1.6875ZM1.68661 11.8125H16.3116V5.30859C15.503 5.94141 14.3429 6.85547 12.6202 8.22656C11.8116 8.82422 10.4757 10.1602 8.99911 10.125C7.48739 10.1602 6.1163 8.82422 5.34286 8.22656C3.62021 6.85547 2.46005 5.94141 1.68661 5.30859V11.8125Z" fill="#EE2529"/>
</svg>
