<svg width="12" height="18" viewBox="0 0 12 18" fill="none" xmlns="http://www.w3.org/2000/svg">
<path d="M9.56191 0C10.476 0 11.2494 0.773438 11.2494 1.6875V16.3125C11.2494 17.2617 10.476 18 9.56191 18H1.68691C0.73769 18 -0.000591278 17.2617 -0.000591278 16.3125V1.6875C-0.000591278 0.773438 0.73769 0 1.68691 0H9.56191ZM5.62441 16.875C6.22206 16.875 6.74941 16.3828 6.74941 15.75C6.74941 15.1523 6.22206 14.625 5.62441 14.625C4.9916 14.625 4.49941 15.1523 4.49941 15.75C4.49941 16.3828 4.9916 16.875 5.62441 16.875ZM9.56191 13.0781V2.10938C9.56191 1.89844 9.35097 1.6875 9.14003 1.6875H2.10878C1.86269 1.6875 1.68691 1.89844 1.68691 2.10938V13.0781C1.68691 13.3242 1.86269 13.5 2.10878 13.5H9.14003C9.35097 13.5 9.56191 13.3242 9.56191 13.0781Z" fill="#EE2529"/>
</svg>
