<svg width="13" height="11" viewBox="0 0 13 11" fill="none" xmlns="http://www.w3.org/2000/svg">
<path d="M12.5 3.83333V1.75C12.5 1.05964 11.8284 0.5 11 0.5H8.50003M12.5 3.83333H8.50003M12.5 3.83333V7.16669M8.50003 0.5V3.83333M8.50003 0.5H4.5M8.50003 3.83333H4.5M8.50003 3.83333V7.16669M12.5 7.16669V9.25C12.5 9.94037 11.8284 10.5 11 10.5H8.50003M12.5 7.16669H8.50003M0.5 3.83333V1.75C0.5 1.05964 1.17157 0.5 2 0.5H4.5M0.5 3.83333H4.5M0.5 3.83333V7.16669M4.5 0.5V3.83333M4.5 3.83333V7.16669M0.5 7.16669V9.25C0.5 9.94037 1.17157 10.5 2 10.5H4.5M0.5 7.16669H4.5M8.50003 7.16669H4.5M8.50003 7.16669V10.5M4.5 7.16669V10.5M8.50003 10.5H4.5" stroke="#EE2529" stroke-linecap="round" stroke-linejoin="round"/>
</svg>
