<svg width="19" height="19" viewBox="0 0 19 19" fill="none" xmlns="http://www.w3.org/2000/svg">
<path d="M2.3989 9.80601H12.1503C12.4615 9.80601 12.7131 9.55402 12.7131 9.24353C12.7131 8.93304 12.4615 8.68105 12.1503 8.68105H2.43379L4.4695 6.64655C4.68956 6.42718 4.68956 6.07057 4.4695 5.8512C4.24944 5.63183 3.89318 5.63183 3.67368 5.8512L0.349121 9.26097L3.67368 12.6713C3.78399 12.781 3.92751 12.8361 4.07159 12.8361C4.21567 12.8361 4.35919 12.781 4.4695 12.6713C4.68956 12.4519 4.68956 12.0959 4.4695 11.8759L2.3989 9.80601ZM17.2224 0.25H7.65448C7.03257 0.25 6.52885 0.753422 6.52885 1.37496V6.43731H7.6618V2.06119C7.6618 1.68546 7.96684 1.38059 8.34281 1.38059H16.5166C16.8931 1.38059 17.1976 1.68546 17.1976 2.06119L17.2156 16.445C17.2156 16.8207 16.9111 17.1256 16.5346 17.1256H8.34393C7.96797 17.1256 7.66292 16.8207 7.66292 16.445V12.0441L6.52997 12.0458V17.125C6.52997 17.7466 7.03369 18.25 7.65561 18.25H17.2229C17.8448 18.25 18.3491 17.7466 18.3491 17.125V1.37553C18.3491 0.753984 17.8448 0.250562 17.2235 0.250562L17.2224 0.25Z" fill="#EE2529" stroke="#EE2529" stroke-width="0.5"/>
</svg>
