<svg width="19" height="20" viewBox="0 0 19 20" fill="none" xmlns="http://www.w3.org/2000/svg">
<path d="M6.29178 14.75H2.94174C1.70019 14.75 1.07941 14.75 0.948801 14.6523C0.802065 14.5425 0.766213 14.4777 0.750319 14.2936C0.736181 14.1297 1.11665 13.4986 1.8776 12.2366C2.66327 10.9335 3.3304 9.0362 3.3304 6.35C3.3304 4.86479 3.95406 3.44041 5.06418 2.3902C6.17431 1.34 7.67996 0.75 9.24992 0.75C10.8199 0.75 12.3255 1.34 13.4356 2.3902C14.5458 3.44041 15.1694 4.86479 15.1694 6.35C15.1694 9.0362 15.8366 10.9335 16.6223 12.2366C17.3831 13.4986 17.7637 14.1297 17.7496 14.2936C17.7337 14.4777 17.6978 14.5425 17.5511 14.6523C17.4204 14.75 16.7997 14.75 15.5582 14.75H12.2097M6.29178 14.75L6.29016 15.75C6.29016 17.4069 7.61534 18.75 9.24992 18.75C10.8846 18.75 12.2097 17.4069 12.2097 15.75V14.75M6.29178 14.75H12.2097" stroke="#EE2529" stroke-width="1.5" stroke-linecap="round" stroke-linejoin="round"/>
</svg>
