<svg width="21" height="21" viewBox="0 0 21 21" fill="none" xmlns="http://www.w3.org/2000/svg">
<path d="M10.5005 20.9967C10.0848 20.9967 9.69333 20.8353 9.39891 20.5421L0.454093 11.5936C-0.151146 10.9855 -0.151146 9.9955 0.452782 9.38866L3.72946 6.11106C3.93143 5.90834 4.24225 5.86045 4.49667 5.99363C4.74978 6.12615 4.8888 6.40825 4.83896 6.69035C4.80552 6.87798 4.79044 7.02821 4.79044 7.16467C4.79044 8.60009 5.95763 9.79213 7.39303 9.79213C8.82973 9.79213 9.87824 8.60009 9.87824 7.16467C9.87824 5.72727 8.82973 4.55951 7.39303 4.55951C7.2586 4.55951 7.1091 4.57526 6.92156 4.60806C6.63697 4.66054 6.35763 4.51949 6.22517 4.26626C6.09272 4.01171 6.14058 3.70075 6.34255 3.49869L9.39759 0.441518C9.98906 -0.14761 11.0127 -0.146298 11.6015 0.440206L13.8382 2.67929C14.3051 1.22746 15.6677 0.173196 17.2709 0.173196C19.2591 0.173196 20.8768 1.79231 20.8768 3.7821C20.8768 5.38679 19.8244 6.74939 18.3719 7.21584L20.545 9.38866C21.1516 9.99747 21.1516 10.9868 20.5457 11.5949L11.6022 20.5434C11.3064 20.8386 10.9156 21 10.4999 21L10.5005 20.9967ZM3.59242 8.10281L1.3813 10.3143C1.28621 10.4101 1.28621 10.5695 1.38261 10.6666L10.3241 19.6131C10.4494 19.7371 10.5484 19.7391 10.6763 19.6118L19.6178 10.6653C19.7135 10.5682 19.7135 10.4114 19.6171 10.3137L16.4637 7.16073C16.2664 6.96326 16.2152 6.66214 16.3365 6.41087C16.4578 6.15961 16.7228 6.01068 17.0028 6.04545L17.1024 6.05858C17.1575 6.06579 17.2126 6.07498 17.2703 6.07498C18.5358 6.07498 19.5647 5.04564 19.5647 3.78079C19.5647 2.51396 18.5352 1.48397 17.2703 1.48397C16.0054 1.48397 14.9765 2.51462 14.9765 3.78079C14.9765 3.83327 14.9844 3.88444 14.9916 3.93561L15.0054 4.05239C15.0349 4.32924 14.8874 4.59428 14.6362 4.71434C14.387 4.83308 14.0867 4.78257 13.8907 4.58575L10.675 1.36654C10.5491 1.24189 10.4507 1.24058 10.3228 1.36785L8.33269 3.35895C10.0396 3.78144 11.189 5.32643 11.189 7.1627C11.189 9.32174 9.55104 11.1016 7.39237 11.1016C5.55764 11.1016 4.01405 9.80853 3.59242 8.10281Z" fill="#EE2529"/>
</svg>
