<svg width="34" height="35" viewBox="0 0 34 35" fill="none" xmlns="http://www.w3.org/2000/svg">
<path d="M16.6319 0C7.48437 0 0 7.72494 0 17.2392C0 25.8416 6.08729 32.9816 14.0374 34.2719V22.2286H9.81284V17.2392H14.0374V13.4369C14.0374 9.11852 16.5155 6.74427 20.3242 6.74427C22.1371 6.74427 24.0331 7.07116 24.0331 7.07116V11.3207H21.9375C19.8752 11.3207 19.2265 12.6455 19.2265 14.0047V17.2392H23.8502L23.1018 22.2286H19.2265V34.2719C23.1457 33.6315 26.7145 31.563 29.2887 28.4395C31.8628 25.3161 33.2729 21.3436 33.2639 17.2392C33.2639 7.72494 25.7795 0 16.6319 0Z" fill="#262626"/>
</svg>
