<svg width="27" height="26" viewBox="0 0 27 26" fill="none" xmlns="http://www.w3.org/2000/svg">
<g clip-path="url(#clip0_1_137458)">
<path fill-rule="evenodd" clip-rule="evenodd" d="M27 26H21.6V16.9013C21.6 14.4053 20.4566 13.0127 18.4059 13.0127C16.1744 13.0127 14.85 14.4638 14.85 16.9013V26H9.45V9.1H14.85V11.0005C14.85 11.0005 16.5442 8.1377 20.362 8.1377C24.1812 8.1377 27 10.3819 27 15.0255V26ZM3.2967 6.39717C1.47555 6.39717 0 4.96465 0 3.19795C0 1.43255 1.47555 0 3.2967 0C5.1165 0 6.59204 1.43255 6.59204 3.19795C6.59339 4.96465 5.1165 6.39717 3.2967 6.39717ZM0 26H6.75V9.1H0V26Z" fill="white"/>
</g>
<defs>
<clipPath id="clip0_1_137458">
<rect width="27" height="26" fill="white"/>
</clipPath>
</defs>
</svg>
