<svg width="38" height="25" viewBox="0 0 38 25" fill="none" xmlns="http://www.w3.org/2000/svg">
<path fill-rule="evenodd" clip-rule="evenodd" d="M14.8161 16.6642V6.9088C18.511 8.5384 21.3727 10.1126 24.7573 11.8099C21.9658 13.2609 18.511 14.889 14.8161 16.6642ZM35.408 2.05699C34.7706 1.26992 33.6843 0.657258 32.5278 0.454425C29.1284 -0.150614 7.92137 -0.152335 4.52388 0.454425C3.59645 0.61738 2.77061 1.01127 2.06118 1.62324C-0.928019 4.22367 0.00865433 18.1689 0.729167 20.4279C1.03215 21.4056 1.42383 22.1108 1.9171 22.5737C2.55263 23.1856 3.42277 23.607 4.42225 23.7959C7.22116 24.3386 21.6406 24.642 32.4686 23.8774C33.4663 23.7145 34.3493 23.2795 35.0458 22.6416C37.8096 20.0515 37.6212 5.32312 35.408 2.05699Z" fill="white"/>
</svg>
